<svg width="105" height="32" viewBox="0 0 105 32" fill="none" xmlns="http://www.w3.org/2000/svg">
<path d="M27.1963 31.7857C26.0679 31.7857 25.0063 31.3381 24.2055 30.5349C23.4047 29.7255 22.9679 28.6525 22.9679 27.5121C22.9679 26.3716 23.4047 25.2986 24.2055 24.4954C25.0063 23.686 26.0679 23.2446 27.1963 23.2446C28.3247 23.2446 29.3863 23.686 30.1871 24.4954C31.8372 26.1631 31.8372 28.8732 30.1871 30.541C29.3863 31.3442 28.3247 31.7857 27.1963 31.7857ZM7.21312 7.75656C8.0139 6.94721 8.45069 5.87421 8.45069 4.73376C8.45069 3.59331 8.00784 2.52031 7.21312 1.71096C6.4184 0.901614 5.35676 0.46015 4.22838 0.46015C3.1 0.46015 2.03836 0.907745 1.23757 1.71096C0.436791 2.51418 0 3.58718 0 4.72763C0 5.86808 0.442858 6.94108 1.23757 7.75043C2.03836 8.55978 3.1 9.00124 4.22838 9.00124C5.35676 9.00124 6.4184 8.55978 7.21312 7.75656ZM29.993 7.6278C31.6431 5.96005 31.6431 3.24995 29.993 1.5822C29.1922 0.772853 28.1306 0.33139 27.0022 0.33139C25.8738 0.33139 24.8122 0.778985 24.0114 1.5822C22.3673 3.24995 22.3673 5.96005 24.0114 7.62167C24.8122 8.43102 25.8738 8.87248 27.0022 8.87248C28.1366 8.87862 29.1983 8.43715 29.993 7.6278ZM4.33758 31.7857C5.46595 31.7857 6.5276 31.3381 7.32232 30.5349C7.49218 30.3632 7.64384 30.1731 7.80157 29.9401C7.85011 29.8665 7.89864 29.793 7.93504 29.7255C8.02604 29.5661 8.1049 29.4128 8.1777 29.2473C8.2141 29.1675 8.24443 29.094 8.28083 29.0081C8.3415 28.8487 8.39003 28.677 8.43856 28.4808C8.44463 28.4502 8.47496 28.3398 8.48103 28.3214L8.54776 27.4078V27.3833C8.54776 27.3158 8.54169 27.2545 8.52956 27.1871C8.52349 27.1319 8.51743 27.0706 8.51136 27.0399C8.50529 26.9848 8.49923 26.9296 8.49923 26.8744C8.49316 26.8253 8.49316 26.7824 8.48709 26.7334L8.48103 26.6966V26.6475C8.43249 25.0166 9.07555 23.3856 10.2403 22.1716C11.4112 20.9575 13.0127 20.2586 14.6325 20.2586C14.6992 20.2586 14.772 20.2586 14.8388 20.2647H14.8752L14.9237 20.277L14.9601 20.2831C15.0026 20.2831 15.0511 20.2892 15.0754 20.2954L15.1603 20.3076C15.2816 20.326 15.403 20.3383 15.5121 20.3444L16.4646 20.277C16.4889 20.2708 16.5071 20.2647 16.5313 20.2586L16.6345 20.2279C16.8165 20.185 16.9863 20.1359 17.1501 20.0746C17.229 20.044 17.3139 20.0072 17.3928 19.9704C17.5444 19.8968 17.6961 19.8171 17.8478 19.7251C17.9145 19.6883 17.9812 19.6454 18.054 19.5964C18.2967 19.4308 18.4848 19.2775 18.6486 19.1059C20.2987 17.4381 20.2987 14.728 18.6546 13.0603C17.8538 12.2509 16.7922 11.8094 15.6638 11.8094C14.5354 11.8094 13.4738 12.2509 12.673 13.0603C12.5092 13.2258 12.3575 13.4159 12.1877 13.6673C12.1392 13.7347 12.1028 13.8022 12.0603 13.8696C11.9693 14.0229 11.8904 14.1762 11.8176 14.3417C11.7812 14.4153 11.7509 14.4889 11.7145 14.5931C11.6478 14.7709 11.5992 14.9487 11.5568 15.1327L11.5386 15.194C11.5325 15.2185 11.5264 15.2369 11.5204 15.2614L11.4476 16.2179C11.4536 16.2977 11.4597 16.3774 11.4718 16.4632L11.484 16.5613C11.49 16.6165 11.4961 16.6717 11.5022 16.7269C11.5082 16.7698 11.5082 16.8188 11.5143 16.8617L11.5204 16.9108V16.9599C11.5689 18.5908 10.9258 20.2218 9.76107 21.4297C8.59022 22.6437 6.98866 23.3427 5.36889 23.3427C5.30216 23.3427 5.22936 23.3427 5.16263 23.3365H5.12016L5.0777 23.3304H5.0413C4.99883 23.3304 4.95637 23.3243 4.91997 23.3182L4.86537 23.312C4.7319 23.2936 4.59844 23.2814 4.48317 23.2752L3.54286 23.3427C3.51859 23.3488 3.50039 23.3549 3.47613 23.3611C3.43973 23.3733 3.4094 23.3795 3.36693 23.3917C3.1728 23.4408 3.00294 23.4898 2.85127 23.545C2.76634 23.5757 2.68141 23.6125 2.60255 23.6493C2.45695 23.7167 2.29922 23.7964 2.14756 23.8884C2.08082 23.9313 2.01409 23.9681 1.94129 24.0233C1.69863 24.1888 1.51057 24.3421 1.34677 24.5138C0.545989 25.3231 0.109198 26.3961 0.109198 27.5366C0.109198 28.677 0.545989 29.75 1.34677 30.5594C2.14756 31.3442 3.2092 31.7857 4.33758 31.7857ZM15.7548 31.7857C16.8832 31.7857 17.9448 31.3442 18.7395 30.541C18.9094 30.3693 19.0611 30.1792 19.2309 29.934C19.2734 29.8665 19.3159 29.793 19.3644 29.7194C19.4493 29.5722 19.5282 29.4189 19.601 29.2656L19.6131 29.2411C19.6495 29.1614 19.6799 29.0878 19.7102 29.0143C19.7709 28.8487 19.8194 28.677 19.8679 28.4808C19.8679 28.4808 19.9043 28.3521 19.9104 28.3337L19.9771 27.3956C19.9771 27.322 19.965 27.2484 19.9589 27.181C19.9529 27.1319 19.9468 27.0767 19.9468 27.0399C19.9407 26.9909 19.9347 26.9418 19.9347 26.8928C19.9286 26.8437 19.9286 26.7947 19.9225 26.7456L19.9104 26.6966V26.6475C19.8619 25.0166 20.5049 23.3856 21.6697 22.1716C22.8405 20.9575 24.436 20.2586 26.0558 20.2586C26.1225 20.2586 26.1953 20.2586 26.2621 20.2647L26.3409 20.2708C26.3531 20.2708 26.3713 20.2708 26.3834 20.2708C26.4198 20.2708 26.4562 20.277 26.5108 20.2831C26.6564 20.3015 26.802 20.3199 26.9415 20.326L27.8818 20.2586C27.9061 20.2524 27.9243 20.2463 27.9486 20.2402C27.9789 20.2279 28.0153 20.2218 28.0578 20.2095C28.264 20.1605 28.4278 20.1114 28.5734 20.0562C28.6583 20.0256 28.7372 19.9888 28.8221 19.952C28.9738 19.8845 29.1255 19.7987 29.265 19.719L29.3378 19.6699C29.3863 19.6393 29.4288 19.6148 29.4773 19.5841C29.7261 19.4124 29.9141 19.253 30.0779 19.0936C31.728 17.4258 31.728 14.7157 30.0779 13.048C29.2771 12.2386 28.2155 11.7972 27.0871 11.7972C25.9587 11.7972 24.8971 12.2448 24.0963 13.048C23.9325 13.2135 23.7808 13.4036 23.6049 13.6611C23.5685 13.7163 23.5321 13.7715 23.5018 13.8267L23.4836 13.8573C23.3865 14.0229 23.3077 14.1762 23.2409 14.3233C23.2045 14.403 23.1681 14.4827 23.1378 14.5686C23.0832 14.7096 23.0347 14.8752 22.9861 15.0959C22.9801 15.1327 22.9437 15.243 22.9376 15.2676L22.8709 16.1934C22.8709 16.267 22.883 16.3406 22.8891 16.4203L22.9073 16.5552C22.9133 16.6042 22.9133 16.6471 22.9194 16.6962C22.9194 16.7023 22.9194 16.7085 22.9194 16.7207L22.9376 16.7453L22.9437 16.9415C22.9922 18.5724 22.3491 20.2034 21.1844 21.4174C20.0196 22.6314 18.418 23.3304 16.7983 23.3304C16.7255 23.3304 16.6587 23.3304 16.5859 23.3243L16.5435 23.3182L16.5131 23.312C16.501 23.312 16.4828 23.312 16.4646 23.312C16.4221 23.312 16.3857 23.3059 16.3372 23.3059L16.2644 23.2936C16.137 23.2752 16.0157 23.263 15.9004 23.2568L14.9419 23.3304C14.9237 23.3365 14.772 23.3795 14.772 23.3795C14.59 23.4224 14.4202 23.4714 14.2624 23.5266C14.1775 23.5573 14.0986 23.5941 14.0198 23.6309C13.862 23.7044 13.7165 23.7841 13.5587 23.8761C13.4859 23.919 13.4192 23.962 13.3585 24.0049C13.1037 24.1827 12.9217 24.336 12.7579 24.5015C11.9572 25.3047 11.5204 26.3777 11.5204 27.5182C11.5204 28.6586 11.9632 29.7316 12.7579 30.541C13.5648 31.3442 14.6264 31.7857 15.7548 31.7857ZM4.33758 20.2524C5.46595 20.2524 6.5276 19.811 7.32232 19.0016C7.48611 18.8361 7.63778 18.6521 7.80764 18.3946C7.85011 18.3272 7.89257 18.2597 7.93504 18.1861C8.02604 18.0329 8.1049 17.8796 8.1777 17.7263C8.2141 17.6404 8.25656 17.5546 8.2869 17.4749C8.3415 17.3216 8.39609 17.1499 8.43856 16.9415L8.46283 16.8556C8.46889 16.8311 8.48103 16.8066 8.48103 16.782L8.54776 15.8501C8.54776 15.7765 8.53562 15.709 8.52956 15.6355C8.52349 15.5864 8.51743 15.5312 8.51136 15.4944C8.50529 15.4454 8.49923 15.3963 8.49923 15.3473C8.49316 15.2982 8.49316 15.2492 8.48103 15.2001V15.1572V15.1082C8.43249 13.4772 9.07555 11.8462 10.2403 10.6322C11.4112 9.41818 13.0067 8.7192 14.6264 8.7192C14.6992 8.7192 14.766 8.7192 14.8388 8.72533L14.8812 8.73146L14.9116 8.73759C14.9298 8.73759 14.9419 8.73759 14.9601 8.74372C14.9965 8.74372 15.039 8.74986 15.0814 8.75599L15.136 8.76212C15.2695 8.78051 15.3969 8.79278 15.5121 8.79891L16.4464 8.73146C16.4707 8.72533 16.4889 8.7192 16.5131 8.71307C16.5495 8.7008 16.5859 8.69467 16.6223 8.68241C16.8104 8.63949 16.9803 8.59044 17.138 8.52912C17.2168 8.49847 17.3018 8.46168 17.3867 8.42489C17.5323 8.35744 17.684 8.27773 17.8356 8.18576L17.866 8.16737C17.9266 8.13058 17.9812 8.09992 18.0419 8.05087C18.2785 7.88532 18.4726 7.7259 18.6364 7.56036C20.2865 5.8926 20.2865 3.18251 18.6364 1.51476C17.8538 0.705407 16.7922 0.257812 15.6638 0.257812C14.5354 0.257812 13.4738 0.705408 12.673 1.50863C12.5092 1.66804 12.3575 1.86425 12.1877 2.10951C12.1452 2.17082 12.1088 2.23214 12.0724 2.29345L12.0603 2.32411C11.9693 2.48353 11.8844 2.63681 11.8176 2.7901C11.7812 2.87594 11.7448 2.95565 11.7145 3.03535C11.6599 3.18251 11.6114 3.34806 11.5568 3.57492C11.5568 3.57492 11.5204 3.69142 11.5143 3.71594V3.73434L11.5082 3.75273L11.4476 4.64792C11.4476 4.72763 11.4597 4.80734 11.4718 4.88705L11.484 5.01581C11.49 5.05873 11.49 5.10165 11.4961 5.14457C11.5022 5.19975 11.5022 5.2488 11.5082 5.30399L11.5143 5.35304V5.40209C11.5628 7.03305 10.9198 8.66401 9.755 9.87804C8.58416 11.0921 6.98866 11.791 5.36889 11.791C5.29609 11.791 5.22936 11.791 5.15656 11.7849H5.12016L5.08376 11.7788C5.07163 11.7788 5.05343 11.7788 5.0413 11.7788C5.0049 11.7788 4.96243 11.7727 4.9139 11.7727L4.88357 11.7665C4.74404 11.7481 4.61057 11.7297 4.48317 11.7236L3.52466 11.791C3.50646 11.7972 3.48826 11.8033 3.464 11.8094L3.3548 11.8401C3.17887 11.883 3.00294 11.9321 2.85127 11.9873C2.76634 12.0179 2.68141 12.0547 2.60255 12.0915C2.44482 12.1651 2.29315 12.2448 2.14756 12.3306C2.07476 12.3735 2.00196 12.4165 1.94129 12.4594C1.69863 12.6311 1.5045 12.7843 1.34071 12.9499C0.539922 13.7531 0.103131 14.8261 0.103131 15.9666C0.103131 17.107 0.545989 18.18 1.34071 18.9894C2.14756 19.8048 3.2092 20.2524 4.33758 20.2524Z" fill="url(#paint0_linear_7_2864)"/>
<path d="M44.0862 31.9998C43.3097 31.9998 42.6605 31.8342 42.1449 31.497C41.6292 31.1598 41.2349 30.6938 40.968 30.0991C40.7011 29.5043 40.5433 28.8114 40.5009 28.0266L42.1692 27.5729C42.2056 28.0573 42.2784 28.5233 42.3936 28.9709C42.5089 29.4185 42.703 29.7863 42.9699 30.0745C43.2369 30.3627 43.6069 30.5037 44.0862 30.5037C44.5776 30.5037 44.9416 30.3688 45.1964 30.0929C45.4451 29.817 45.5725 29.4246 45.5725 28.9034C45.5725 28.2841 45.433 27.7875 45.1539 27.4135C44.8748 27.0395 44.529 26.6593 44.1044 26.2792L41.8416 24.2619C41.3987 23.8695 41.0711 23.4403 40.8588 22.9743C40.6465 22.5083 40.5433 21.932 40.5433 21.2514C40.5433 20.252 40.8284 19.4794 41.3926 18.9276C41.9568 18.3757 42.7333 18.106 43.7101 18.106C44.2439 18.106 44.711 18.1734 45.1175 18.3144C45.524 18.4554 45.8637 18.6701 46.1306 18.9644C46.4036 19.2587 46.6159 19.6266 46.7797 20.068C46.9435 20.5095 47.0467 21.0307 47.1073 21.6254L45.5118 22.0607C45.4754 21.6131 45.4087 21.2023 45.3116 20.8222C45.2146 20.4482 45.0386 20.1416 44.7899 19.9147C44.5412 19.6817 44.1832 19.5714 43.7161 19.5714C43.249 19.5714 42.885 19.7001 42.6241 19.9515C42.3633 20.2029 42.2298 20.5769 42.2298 21.0736C42.2298 21.4905 42.2966 21.8339 42.4361 22.0975C42.5756 22.3673 42.8001 22.6432 43.1095 22.9191L45.3905 24.9364C45.9001 25.384 46.349 25.9235 46.7373 26.5428C47.1255 27.1682 47.3196 27.904 47.3196 28.7563C47.3196 29.4307 47.1801 30.0071 46.9011 30.4976C46.622 30.9881 46.2459 31.3621 45.7605 31.6196C45.2752 31.871 44.7171 31.9998 44.0862 31.9998Z" fill="#0C0C0C"/>
<path d="M52.2274 31.9999C51.3175 31.9999 50.5895 31.822 50.0435 31.4603C49.4975 31.0985 49.1092 30.5896 48.8787 29.9213C48.6482 29.253 48.5269 28.4681 48.5269 27.573V22.4042C48.5269 21.509 48.6482 20.7364 48.8848 20.0926C49.1214 19.4488 49.5096 18.9522 50.0496 18.6088C50.5895 18.2654 51.3114 18.0938 52.2214 18.0938C53.1314 18.0938 53.8533 18.2654 54.3871 18.6149C54.921 18.9644 55.3032 19.4549 55.5458 20.0987C55.7824 20.7364 55.9038 21.509 55.9038 22.4042V27.5913C55.9038 28.4804 55.7824 29.253 55.5458 29.9152C55.3092 30.5774 54.921 31.0924 54.3871 31.4542C53.8593 31.8159 53.1374 31.9999 52.2274 31.9999ZM52.2274 30.5038C52.7249 30.5038 53.1071 30.3995 53.3619 30.1911C53.6167 29.9826 53.7865 29.6944 53.8775 29.3143C53.9685 28.9341 54.011 28.4988 54.011 27.9899V22.0179C54.011 21.5151 53.9685 21.0798 53.8775 20.7119C53.7865 20.3501 53.6167 20.0681 53.3619 19.8719C53.1071 19.6757 52.731 19.5776 52.2274 19.5776C51.73 19.5776 51.3478 19.6757 51.0869 19.8719C50.8261 20.0681 50.6501 20.3501 50.5652 20.7119C50.4742 21.0798 50.4317 21.509 50.4317 22.0179V27.9899C50.4317 28.4927 50.4742 28.9341 50.5652 29.3143C50.6562 29.6883 50.8261 29.9826 51.0869 30.1911C51.3478 30.3995 51.73 30.5038 52.2274 30.5038Z" fill="#0C0C0C"/>
<path d="M57.7538 31.8465V18.2163H62.9649V19.5775H59.6344V24.1209H62.2127V25.4698H59.6344V31.8465H57.7538Z" fill="#0C0C0C"/>
<path d="M65.75 31.8463V19.6263H63.469V18.21H69.8449V19.6263H67.6306V31.8463H65.75Z" fill="#0C0C0C"/>
<path d="M72.8904 31.8465L70.6943 18.2163H72.2595L73.7094 28.0143L75.5233 18.2715H76.8579L78.69 28.0695L80.1035 18.2224H81.6384L79.4726 31.8526H78.1077L76.227 21.7541L74.3282 31.8526H72.8904V31.8465Z" fill="#0C0C0C"/>
<path d="M82.1659 31.8465L85.0293 18.2163H86.8432L89.7248 31.8465H87.9412L87.3225 28.4129H84.5743L83.9252 31.8465H82.1659ZM84.8352 27.0517H87.0859L85.9514 20.908L84.8352 27.0517Z" fill="#0C0C0C"/>
<path d="M91.0955 31.8465V18.2163H93.8072C94.7051 18.2163 95.4512 18.3389 96.0397 18.5781C96.6282 18.8172 97.0649 19.2035 97.344 19.7369C97.6231 20.2703 97.7687 20.9693 97.7687 21.8339C97.7687 22.3612 97.7141 22.8394 97.6049 23.2747C97.4957 23.7039 97.3137 24.0718 97.071 24.3661C96.8283 24.6666 96.5068 24.8812 96.1064 25.0161L98.0235 31.8465H96.2096L94.4442 25.4514H92.9761V31.8465H91.0955ZM92.9761 24.0902H93.6919C94.2258 24.0902 94.6565 24.0228 94.9902 23.8879C95.3238 23.753 95.5665 23.5261 95.7242 23.195C95.882 22.8701 95.9548 22.4163 95.9548 21.8339C95.9548 21.0368 95.8092 20.4604 95.524 20.1109C95.2328 19.7553 94.6626 19.5836 93.8072 19.5836H92.9761V24.0902Z" fill="#0C0C0C"/>
<path d="M99.7343 31.8465V18.2163H104.964V19.6327H101.615V24.1454H104.333V25.4943H101.621V30.4914H105V31.8526H99.7343V31.8465Z" fill="#0C0C0C"/>
<path d="M40.8707 13.6302V0H44.1709C45.3114 0 46.2032 0.147155 46.8463 0.447595C47.4833 0.741904 47.9383 1.20789 48.2052 1.84556C48.4721 2.4771 48.6056 3.29258 48.6056 4.27974V9.24621C48.6056 10.2579 48.4721 11.0856 48.2052 11.7356C47.9383 12.3855 47.4893 12.8638 46.8645 13.1765C46.2396 13.483 45.36 13.6363 44.2437 13.6363H40.8707V13.6302ZM43.6189 11.6927H44.2013C44.7108 11.6927 45.0748 11.6129 45.2932 11.4474C45.5116 11.2818 45.6451 11.0427 45.6997 10.7239C45.7543 10.4051 45.7846 10.0065 45.7846 9.53439V3.91186C45.7846 3.43974 45.7482 3.05959 45.6754 2.77754C45.6026 2.48936 45.457 2.28089 45.2447 2.146C45.0324 2.01111 44.6745 1.94367 44.1891 1.94367H43.6249V11.6927H43.6189Z" fill="#0C0C0C"/>
<path d="M50.4137 13.6302V0H53.908C54.818 0 55.6006 0.104234 56.2497 0.312703C56.8988 0.521172 57.3963 0.889059 57.7481 1.41636C58.1 1.94367 58.2699 2.67331 58.2699 3.60529C58.2699 4.16938 58.2213 4.66602 58.1303 5.09523C58.0333 5.52443 57.8695 5.90458 57.6329 6.22341C57.3963 6.54224 57.0566 6.79977 56.6258 6.98984L58.4883 13.6363H55.6734L54.1264 7.46196H53.1618V13.6363H50.4137V13.6302ZM53.1618 5.80647H53.9626C54.4055 5.80647 54.7573 5.7329 55.0121 5.58574C55.2669 5.43859 55.4489 5.21785 55.5521 4.92355C55.6552 4.62924 55.7098 4.26135 55.7098 3.81989C55.7098 3.19448 55.5945 2.7101 55.3701 2.379C55.1395 2.0479 54.7149 1.88235 54.0961 1.88235H53.1618V5.80647Z" fill="#0C0C0C"/>
<path d="M60.1199 13.6302V0H65.9983V1.91301H62.868V5.53056H65.2825V7.46809H62.868V11.7417H66.0348V13.6241H60.1199V13.6302Z" fill="#0C0C0C"/>
<path d="M66.7506 13.6302L69.3653 0H72.4107L75.0072 13.6302H72.4592L71.9739 10.6319H69.8445L69.3289 13.6302H66.7506ZM70.0933 8.93351H71.707L70.8941 3.42747L70.0933 8.93351Z" fill="#0C0C0C"/>
<path d="M76.324 13.6302L76.5545 0H79.4664L81.1287 8.60241L82.9122 0H85.7271L85.9576 13.6302H83.9618L83.7434 4.39011L82.0265 13.6302H80.3097L78.514 4.32266L78.332 13.6302H76.324Z" fill="#0C0C0C"/>
<path d="M89.6094 13.6302V8.22839L86.9825 0H89.5608L91.0107 4.79479L92.3575 0H94.8569L92.2604 8.22839V13.6302H89.6094Z" fill="#0C0C0C"/>
<defs>
<linearGradient id="paint0_linear_7_2864" x1="5.87102" y1="33.3463" x2="25.8991" y2="-0.976193" gradientUnits="userSpaceOnUse">
<stop stop-color="#2E6AFF"/>
<stop offset="0.2957" stop-color="#5C42FF"/>
<stop offset="0.6071" stop-color="#5272FF"/>
<stop offset="0.8527" stop-color="#5272FF"/>
<stop offset="1" stop-color="#5272FF"/>
</linearGradient>
</defs>
</svg>
